<!-- icon666.com - MILLIONS OF FREE VECTOR ICONS --><svg id="Layer_1" enable-background="new 0 0 2000 2000" viewBox="0 0 2000 2000" xmlns="http://www.w3.org/2000/svg"><g><path d="m1744 503.5h-1488c-9.9 0-18 8.1-18 18v957c0 9.9 8.1 18 18 18h1488c9.9 0 18-8.1 18-18.1v-956.9c0-9.9-8.1-18-18-18zm-18 957h-1452v-921h1452z"/><path d="m472 1385.5h445c19.6 0 35.5-15.9 35.5-35.4v-228.2c0-26.5-8.3-51.6-24-72.9-15.6-21.2-37.3-36.6-62.5-44.4l-100.7-31.1v-24.8c19.1-16.1 32.7-38.6 37.4-64.1 26.8-1.6 48.2-23.8 48.2-51 0-13.6-5.4-26-14.1-35.2v-41.4c0-37.9-14.7-73.6-41.5-100.5s-62.4-41.8-100.3-41.9c-.2 0-.3 0-.5 0-37.5 0-73 14.8-99.9 41.6-27.3 27.2-42.4 63.4-42.4 101.7v40.4c-8.7 9.2-14.1 21.6-14.1 35.2 0 27.2 21.4 49.5 48.1 51.1 4.7 25.6 18.3 48 37.5 64.1v24.7l-100.7 31.1c-25.2 7.8-46.8 23.1-62.5 44.4s-24 46.5-24 72.9v228.2c0 19.6 16 35.5 35.5 35.5zm332.6-537.7v-28.7c5.9 2 10.3 7.8 10.3 14.4s-4.3 12.3-10.3 14.3zm-184.6-166.2c20.2-20.2 46.8-31.2 74.9-31.1 58.5.2 106 48 106 106.4v13.2c-.3-.4-.6-.7-.9-1.1l-37.5-41.8c-3.3-3.7-8-5.9-12.9-6s-9.7 1.8-13.2 5.3c-32.3 32.2-107.2 37.3-133.4 36.6-4.9-.1-9.6 1.7-13.1 5.1-.6.6-1.2 1.3-1.7 1.9v-12.3c0-28.7 11.3-55.7 31.8-76.2zm-45.9 151.8c0-4.8 2.3-9.1 5.9-11.9.4-.2.7-.5 1.1-.8 1-.7 2.2-1.2 3.4-1.6v28.6c-6.1-2-10.4-7.7-10.4-14.3zm46.3-33.2v-1.4c29.5-1.2 87.5-7.3 126.8-34.8l21.4 23.9v76.5c0 40.9-33.2 74.1-74.1 74.1s-74.1-33.3-74.1-74.1zm74.1 174.3c12.2 0 23.9-2 34.8-5.6v11.3l-34.8 40.3-34.8-40.3v-11.3c10.9 3.6 22.6 5.6 34.8 5.6zm-222 147.4c0-38.3 24.5-71.6 61.1-82.9l102-31.6 45.3 52.5c3.4 3.9 8.4 6.2 13.6 6.2s10.2-2.2 13.6-6.2l45.3-52.5 102 31.6c36.5 11.3 61.1 44.6 61.1 82.9v227.7h-46.9v-212.6c0-9.9-8.1-18-18-18s-18 8.1-18 18v212.6h-277.3v-212.6c0-9.9-8.1-18-18-18s-18 8.1-18 18v212.6h-47.8z"/><path d="m1095.5 856h450c9.9 0 18-8.1 18-18v-132c0-9.9-8.1-18-18-18h-450c-9.9 0-18 8.1-18 18v132c0 9.9 8.1 18 18 18zm18-132h414v96h-414z"/><path d="m1095.5 970h368c9.9 0 18-8.1 18-18s-8.1-18-18-18h-368c-9.9 0-18 8.1-18 18s8.1 18 18 18z"/><path d="m1095.5 1084h450c9.9 0 18-8.1 18-18s-8.1-18-18-18h-450c-9.9 0-18 8.1-18 18s8.1 18 18 18z"/><path d="m1095.5 1198h383c9.9 0 18-8.1 18-18s-8.1-18-18-18h-383c-9.9 0-18 8.1-18 18s8.1 18 18 18z"/><path d="m1095.5 1312h450c9.9 0 18-8.1 18-18s-8.1-18-18-18h-450c-9.9 0-18 8.1-18 18s8.1 18 18 18z"/></g></svg>