<svg
    xmlns="http://www.w3.org/2000/svg"
    viewBox="0 0 72 68"
    fill="none"
    stroke="currentColor"
    stroke-width="2"
    class="w-10 h-10 "
  >
    <path d="M 32 6 L 31 7 L 30 7 L 30 10 L 29 11 L 23 11 L 22 12 L 21 12 L 20 13 L 19 13 L 19 14 L 18 15 L 18 16 L 17 17 L 17 19 L 16 20 L 16 24 L 17 25 L 17 30 L 16 31 L 16 33 L 17 34 L 17 35 L 19 37 L 19 39 L 20 40 L 20 41 L 21 42 L 21 46 L 18 49 L 17 49 L 16 50 L 15 50 L 14 51 L 13 51 L 12 52 L 11 52 L 10 53 L 9 53 L 5 57 L 5 58 L 4 59 L 4 64 L 54 64 L 54 62 L 53 61 L 53 58 L 51 56 L 51 55 L 50 54 L 49 54 L 47 52 L 46 52 L 45 51 L 43 51 L 42 50 L 41 50 L 40 49 L 39 49 L 36 46 L 36 43 L 37 42 L 37 41 L 39 39 L 39 36 L 36 36 L 36 37 L 35 38 L 35 39 L 34 40 L 34 49 L 35 50 L 36 50 L 38 52 L 39 52 L 40 53 L 42 53 L 43 54 L 44 54 L 45 55 L 46 55 L 50 59 L 50 61 L 49 62 L 9 62 L 8 61 L 8 59 L 9 58 L 9 57 L 10 56 L 11 56 L 12 55 L 13 55 L 14 54 L 15 54 L 16 53 L 17 53 L 18 52 L 19 52 L 20 51 L 21 51 L 24 48 L 24 41 L 22 39 L 22 37 L 21 36 L 21 34 L 19 32 L 19 31 L 20 30 L 20 24 L 19 23 L 19 21 L 20 20 L 20 17 L 23 14 L 26 14 L 27 13 L 29 13 L 30 14 L 30 25 L 32 27 L 35 27 L 36 28 L 36 33 L 40 33 L 44 29 L 44 28 L 45 27 L 57 27 L 58 26 L 58 7 L 57 6 Z" />
  </svg>
