<svg
         class="fill-current"
width = "18"
height = "18"
viewBox = "0 0 409.6 409.6"
xmlns = "http://www.w3.org/2000/svg" >
    <path d="m243.859375 207.058594h-18.515625v-18.507813c0-2.832031-2.289062-5.121093-5.117188-5.121093h-30.851562c-2.828125 0-5.121094 2.289062-5.121094 5.121093v18.507813h-18.515625c-2.828125 0-5.117187 2.292968-5.117187 5.121094v30.855468c0 2.828125 2.289062 5.121094 5.117187 5.121094h18.515625v18.507812c0 2.832032 2.292969 5.121094 5.121094 5.121094h30.851562c2.828126 0 5.117188-2.289062 5.117188-5.121094v-18.507812h18.515625c2.832031 0 5.121094-2.292969 5.121094-5.121094v-30.855468c0-2.828126-2.289063-5.121094-5.121094-5.121094zm-5.121094 30.855468h-18.511719c-2.832031 0-5.121093 2.289063-5.121093 5.121094v18.511719h-20.609375v-18.511719c0-2.832031-2.292969-5.121094-5.121094-5.121094h-18.515625v-20.613281h18.515625c2.828125 0 5.121094-2.289062 5.121094-5.121093v-18.507813h20.609375v18.507813c0 2.832031 2.289062 5.121093 5.121093 5.121093h18.511719zm0 0" /> <path d="m388.269531 0h-372.910156c-2.828125 0-5.121094 2.289062-5.121094 5.121094v350.507812h-5.117187c-2.832032 0-5.121094 2.292969-5.121094 5.121094v43.730469c0 2.828125 2.289062 5.121093 5.121094 5.121093h399.359375c2.828125 0 5.121093-2.292968 5.121093-5.121093v-43.730469c0-2.828125-2.292968-5.121094-5.121093-5.121094h-11.089844v-350.507812c0-2.832032-2.289063-5.121094-5.121094-5.121094zm-5.121093 355.628906h-109.113282v-345.390625h109.113282zm-236.804688 0v-345.390625h117.453125v345.390625zm-125.863281-345.390625h115.625v345.390625h-115.625zm378.878906 389.121094h-389.121094v-33.488281h389.121094zm0 0" /> <path d="m204.800781 95.953125c16.273438 0 29.515625-13.238281 29.515625-29.511719 0-16.277344-13.242187-29.515625-29.515625-29.515625-16.277343 0-29.515625 13.238281-29.515625 29.515625 0 16.273438 13.238282 29.511719 29.515625 29.511719zm0-48.789063c10.628907 0 19.273438 8.644532 19.273438 19.277344 0 10.628906-8.644531 19.273438-19.273438 19.273438-10.628906 0-19.277343-8.644532-19.277343-19.273438 0-10.632812 8.648437-19.277344 19.277343-19.277344zm0 0" /> <path d="m180.304688 125.183594h48.992187c2.828125 0 5.117187-2.289063 5.117187-5.117188 0-2.832031-2.289062-5.121094-5.117187-5.121094h-48.992187c-2.828126 0-5.121094 2.289063-5.121094 5.121094 0 2.828125 2.292968 5.117188 5.121094 5.117188zm0 0" /> <path d="m289.703125 248.15625h18.515625v18.507812c0 2.832032 2.292969 5.121094 5.121094 5.121094h30.851562c2.828125 0 5.117188-2.289062 5.117188-5.121094v-18.507812h18.511718c2.828126 0 5.121094-2.292969 5.121094-5.121094v-30.855468c0-2.828126-2.292968-5.121094-5.121094-5.121094h-18.511718v-18.507813c0-2.832031-2.289063-5.121093-5.117188-5.121093h-30.851562c-2.828125 0-5.121094 2.289062-5.121094 5.121093v18.507813h-18.515625c-2.828125 0-5.117187 2.292968-5.117187 5.121094v30.855468c0 2.828125 2.289062 5.121094 5.117187 5.121094zm5.121094-30.855469h18.515625c2.832031 0 5.121094-2.289062 5.121094-5.121093v-18.507813h20.609374v18.507813c0 2.832031 2.289063 5.121093 5.121094 5.121093h18.507813v20.613281h-18.507813c-2.832031 0-5.121094 2.289063-5.121094 5.121094v18.511719h-20.609374v-18.511719c0-2.832031-2.289063-5.121094-5.121094-5.121094h-18.515625zm0 0" /> <path d="m328.765625 95.953125c16.273437 0 29.515625-13.238281 29.515625-29.511719 0-16.277344-13.242188-29.515625-29.515625-29.515625-16.277344 0-29.515625 13.238281-29.515625 29.515625 0 16.273438 13.238281 29.511719 29.515625 29.511719zm0-48.789063c10.628906 0 19.273437 8.644532 19.273437 19.277344 0 10.628906-8.644531 19.273438-19.273437 19.273438s-19.277344-8.644532-19.277344-19.273438c0-10.632812 8.648438-19.277344 19.277344-19.277344zm0 0" /> <path d="m304.269531 125.183594h48.984375c2.832032 0 5.121094-2.289063 5.121094-5.117188 0-2.832031-2.289062-5.121094-5.121094-5.121094h-48.984375c-2.828125 0-5.121093 2.289063-5.121093 5.121094 0 2.828125 2.292968 5.117188 5.121093 5.117188zm0 0" /> <path d="m116.636719 207.058594h-18.511719v-18.507813c0-2.832031-2.289062-5.121093-5.121094-5.121093h-30.855468c-2.828126 0-5.117188 2.289062-5.117188 5.121093v18.507813h-18.511719c-2.828125 0-5.121093 2.292968-5.121093 5.121094v30.855468c0 2.828125 2.292968 5.121094 5.121093 5.121094h18.511719v18.507812c0 2.832032 2.289062 5.121094 5.117188 5.121094h30.855468c2.832032 0 5.121094-2.289062 5.121094-5.121094v-18.507812h18.511719c2.828125 0 5.117187-2.292969 5.117187-5.121094v-30.855468c0-2.828126-2.289062-5.121094-5.117187-5.121094zm-5.121094 30.855468h-18.511719c-2.828125 0-5.117187 2.289063-5.117187 5.121094v18.511719h-20.617188v-18.511719c0-2.832031-2.289062-5.121094-5.121093-5.121094h-18.507813v-20.613281h18.507813c2.832031 0 5.121093-2.289062 5.121093-5.121093v-18.507813h20.617188v18.507813c0 2.832031 2.289062 5.121093 5.117187 5.121093h18.511719zm0 0" /> <path d="m77.578125 95.953125c16.277344 0 29.515625-13.238281 29.515625-29.511719 0-16.277344-13.238281-29.515625-29.515625-29.515625-16.273437 0-29.511719 13.238281-29.511719 29.515625 0 16.273438 13.238282 29.511719 29.511719 29.511719zm0-48.789063c10.632813 0 19.277344 8.644532 19.277344 19.277344 0 10.628906-8.644531 19.273438-19.277344 19.273438-10.628906 0-19.273437-8.644532-19.273437-19.273438 0-10.632812 8.644531-19.277344 19.273437-19.277344zm0 0" /> <path d="m53.085938 125.183594h48.984374c2.828126 0 5.121094-2.289063 5.121094-5.117188 0-2.832031-2.292968-5.121094-5.121094-5.121094h-48.984374c-2.832032 0-5.121094 2.289063-5.121094 5.121094 0 2.828125 2.289062 5.117188 5.121094 5.117188zm0 0" /> </svg>