<svg class="fill-current" width="18" height="18" xmlns="http://www.w3.org/2000/svg" viewBox="0 0 48 48" id="hospital">
  <path d="M47.5 12.6h-11V.5h-25v12.1H.5v29.3h6.2v5.6h34.6v-5.6h6.2V12.6zm-34-10.1h21v37.4h-4.2v-8H17.7v8h-4.2V2.5zm14.8 37.4h-8.7v-6h8.7v6zm-25.8 0V14.6h9v25.3h-9zm36.8 5.6H8.7v-3.6h30.7v3.6zm6.2-5.6h-9V14.6h9v25.3z"></path>
  <path d="M23 14.6h2v-2.9h2.9v-2H25V6.8h-2v2.9h-2.9v2H23zM6 18.5h2v3.1H6zM6 25.7h2v3.1H6zM6 32.9h2V36H6zM40 18.5h2v3.1h-2zM40 25.7h2v3.1h-2zM40 32.9h2V36h-2zM17.7 18.5h2v3.1h-2zM17.7 25.7h2v3.1h-2zM23 18.5h2v3.1h-2zM23 25.7h2v3.1h-2zM28.3 18.5h2v3.1h-2zM28.3 25.7h2v3.1h-2z"></path>
</svg>