<svg fill="none" 
class="fill-current"
 version="1.1" id="Layer_1" height="18px" width="18px" xmlns="http://www.w3.org/2000/svg"
	xmlns:xlink="http://www.w3.org/1999/xlink" viewBox="0 0 512 512" xml:space="preserve">
<g>
	<g>
		<path d="M374.839,210.286c0-1.554-0.375-3.109-1.17-4.507c-0.631-1.115-1.518-2.002-2.514-2.743l0.046-0.064l-109.714-82.286
			l-0.046,0.064c-0.439-0.329-0.85-0.677-1.353-0.933c-3.109-1.545-6.802-1.225-9.573,0.869L140.8,202.971l0.046,0.055
			c-0.987,0.741-1.883,1.627-2.514,2.743c-0.795,1.408-1.17,2.962-1.17,4.517h-0.018v91.429c0,2.99,1.527,5.522,3.749,7.186
			l-0.091,0.128l109.714,82.286c1.627,1.225,3.557,1.829,5.486,1.829s3.858-0.603,5.486-1.829L371.2,309.029l-0.091-0.128
			c2.222-1.664,3.749-4.197,3.749-7.186v-91.429H374.839z M265.143,146.286l73.143,54.857h-73.143V146.286z M349.568,219.429
			l-38.711,64.512l-38.711-64.512H349.568z M256,228.059l38.711,64.512h-77.422L256,228.059z M246.857,146.286v54.857h-73.143
			L246.857,146.286z M239.854,219.429l-38.711,64.512l-38.711-64.512H239.854z M155.429,243.291l29.568,49.28h-29.568V243.291z
			 M173.714,310.857h22.537l22.537,33.801L173.714,310.857z M256,367.515l-37.778-56.658h75.557L256,367.515z M293.211,344.658
			l22.537-33.801h22.537L293.211,344.658z M356.571,292.571h-29.568l29.568-49.28V292.571z"/>
	</g>
</g>
<g>
	<g>
		<path d="M481.554,220.05c-5.614-35.419-19.529-69.029-40.631-98.094c4.37-6.135,6.811-13.413,6.811-21.111
			c0-9.765-3.803-18.944-10.715-25.856c-12.343-12.343-32.832-13.586-46.921-3.867c-29.083-21.12-62.711-35.063-98.149-40.667
			C289.015,13.193,274.066,0,256,0s-33.015,13.193-35.95,30.437c-35.438,5.614-69.056,19.547-98.149,40.667
			c-14.089-9.71-34.578-8.475-46.921,3.867c-6.912,6.912-10.715,16.091-10.715,25.856c0,7.698,2.441,14.976,6.811,21.111
			c-21.102,29.074-35.017,62.683-40.631,98.094C13.202,222.985,0,237.925,0,256s13.202,33.015,30.446,35.95
			c5.614,35.419,19.529,69.029,40.631,98.094c-4.37,6.135-6.811,13.413-6.811,21.111c0,9.765,3.803,18.944,10.715,25.856
			c6.903,6.912,16.091,10.715,25.856,10.715c7.689,0,14.976-2.432,21.111-6.811c29.074,21.102,62.683,35.026,98.094,40.64
			C222.985,498.807,237.934,512,256,512s33.015-13.193,35.95-30.437c35.419-5.614,69.019-19.538,98.094-40.64
			c6.144,4.37,13.422,6.811,21.111,6.811c9.765,0,18.953-3.803,25.856-10.715c6.912-6.912,10.715-16.091,10.715-25.856
			c0-7.698-2.441-14.976-6.811-21.111c21.102-29.074,35.017-62.683,40.631-98.094C498.798,289.015,512,274.075,512,256
			S498.798,222.985,481.554,220.05z M397.513,88.869c0.055-0.064,0.064-0.165,0.119-0.229c0.21-0.229,0.366-0.503,0.594-0.722
			c6.912-6.912,18.953-6.921,25.865-0.009c3.456,3.456,5.358,8.046,5.358,12.928c0,4.882-1.902,9.472-5.358,12.928
			c-0.238,0.238-0.521,0.402-0.768,0.622c-0.046,0.046-0.119,0.055-0.165,0.091c-0.878,0.777-1.819,1.445-2.798,2.021
			c-0.119,0.064-0.247,0.119-0.366,0.183c-0.768,0.43-1.563,0.905-2.377,1.216c-0.96,0.357-1.929,0.96-2.917,0.96h-0.009
			c-5.824,0-12.142-0.658-16.466-4.974c-0.841-0.841-1.582-1.81-2.231-2.77C391.506,104.393,391.954,95.195,397.513,88.869z
			 M256,18.286c10.085,0,18.286,8.201,18.286,18.286c0,0.32-0.073,0.613-0.091,0.923c-0.009,0.082-0.055,0.146-0.064,0.229
			c-0.457,7.186-5.038,13.211-11.319,15.79c-0.256,0.101-0.539,0.155-0.805,0.247c-0.805,0.283-1.609,0.567-2.459,0.741
			c-1.143,0.229-2.331,0.357-3.547,0.357s-2.405-0.128-3.557-0.357c-0.85-0.174-1.655-0.448-2.459-0.741
			c-0.265-0.091-0.549-0.146-0.805-0.247c-6.272-2.578-10.853-8.594-11.319-15.79c-0.009-0.082-0.055-0.146-0.064-0.229
			c-0.009-0.311-0.082-0.603-0.082-0.923C237.714,26.487,245.915,18.286,256,18.286z M87.909,87.909
			c3.456-3.456,8.046-5.358,12.928-5.358c4.882,0,9.481,1.902,12.937,5.358c0.219,0.219,0.384,0.485,0.594,0.722
			c0.055,0.064,0.064,0.146,0.119,0.21c5.559,6.318,6.016,15.497,1.518,22.217c-0.649,0.96-1.39,1.874-2.231,2.715
			c-4.315,4.315-10.624,5.934-16.439,4.864c-0.055-0.009-0.119-0.027-0.174-0.046c-0.933-0.183-1.847-0.457-2.743-0.786
			c-0.841-0.32-1.673-0.695-2.478-1.143c-0.091-0.046-0.183-0.091-0.274-0.137c-0.987-0.576-1.929-1.253-2.816-2.03
			c-0.046-0.046-0.119-0.055-0.165-0.091c-0.247-0.219-0.53-0.384-0.768-0.622c-3.456-3.456-5.358-8.046-5.358-12.928
			C82.56,95.973,84.453,91.365,87.909,87.909z M37.486,274.194c-0.311,0.018-0.603,0.091-0.914,0.091
			c-10.085,0-18.286-8.201-18.286-18.286s8.201-18.286,18.286-18.286c0.311,0,0.603,0.073,0.914,0.091
			c0.091,0.009,0.165,0.064,0.247,0.064c5.998,0.384,11.191,3.63,14.235,8.357c0.594,0.933,1.106,1.911,1.536,2.944
			c0.128,0.311,0.192,0.649,0.302,0.969c0.265,0.759,0.53,1.509,0.695,2.304c0.229,1.152,0.357,2.341,0.357,3.557
			s-0.128,2.405-0.357,3.557c-0.165,0.795-0.43,1.554-0.695,2.313c-0.11,0.311-0.174,0.649-0.293,0.951
			c-0.421,1.033-0.933,2.021-1.536,2.944c-3.045,4.718-8.238,7.973-14.235,8.357C37.65,274.13,37.577,274.185,37.486,274.194z
			 M114.487,423.168c-0.055,0.064-0.064,0.146-0.119,0.21c-0.21,0.229-0.366,0.494-0.594,0.722
			c-6.912,6.903-18.953,6.903-25.865-0.009c-3.456-3.456-5.358-8.046-5.358-12.928c0-4.882,1.902-9.472,5.358-12.928
			c0.219-0.219,0.485-0.384,0.713-0.585c0.064-0.055,0.155-0.073,0.219-0.128c7.232-6.345,18.176-6.034,24.933,0.713
			c0.841,0.841,1.582,1.755,2.231,2.715C120.503,407.671,120.046,416.841,114.487,423.168z M256,493.714
			c-10.085,0-18.286-8.201-18.286-18.286c0-0.32,0.073-0.613,0.091-0.923c0.009-0.082,0.055-0.146,0.064-0.229
			c0.457-7.186,5.038-13.211,11.31-15.79c0.274-0.11,0.567-0.165,0.841-0.265c0.795-0.283,1.582-0.558,2.423-0.722
			c1.152-0.229,2.341-0.357,3.557-0.357s2.405,0.128,3.557,0.357c0.832,0.165,1.627,0.448,2.423,0.722
			c0.274,0.101,0.576,0.155,0.841,0.265c6.272,2.578,10.853,8.594,11.31,15.79c0.009,0.082,0.055,0.146,0.064,0.229
			c0.018,0.311,0.091,0.603,0.091,0.923C274.286,485.513,266.085,493.714,256,493.714z M424.091,424.091
			c-6.912,6.912-18.953,6.912-25.865,0c-0.219-0.219-0.384-0.485-0.594-0.722c-0.055-0.064-0.064-0.146-0.119-0.21
			c-5.559-6.318-6.016-15.497-1.518-22.217c0.649-0.96,1.39-1.874,2.231-2.715c4.315-4.315,10.624-5.934,16.439-4.864
			c0.046,0.009,0.091,0.027,0.137,0.037c0.951,0.183,1.874,0.466,2.789,0.795c0.832,0.32,1.646,0.686,2.432,1.125
			c0.101,0.055,0.21,0.101,0.32,0.165c0.978,0.576,1.929,1.253,2.807,2.03c0.046,0.046,0.119,0.055,0.165,0.101
			c0.247,0.219,0.53,0.384,0.768,0.622c3.456,3.456,5.358,8.046,5.358,12.928C429.44,416.046,427.547,420.635,424.091,424.091z
			 M426.999,378.322c-0.549-0.265-1.125-0.421-1.673-0.658c-0.192-0.073-0.375-0.146-0.567-0.219
			c-10.944-4.425-23.47-3.337-33.472,3.145c-0.174,0.11-0.357,0.21-0.521,0.32c-1.911,1.289-3.767,2.706-5.449,4.398
			c-1.563,1.563-2.917,3.264-4.142,5.038c-0.494,0.704-0.887,1.445-1.326,2.185c-0.64,1.079-1.234,2.158-1.755,3.282
			c-0.448,0.969-0.85,1.947-1.207,2.953c-0.329,0.923-0.594,1.856-0.85,2.798c-0.311,1.161-0.64,2.304-0.832,3.493
			c-0.101,0.603-0.11,1.216-0.174,1.819c-0.165,1.426-0.421,2.834-0.421,4.297c0,1.371,0.247,2.688,0.393,4.023
			c0.055,0.457,0.064,0.914,0.137,1.371c0.229,1.554,0.585,3.054,1.015,4.553c0.119,0.402,0.238,0.805,0.366,1.207
			c0.503,1.563,1.07,3.081,1.783,4.562c0.018,0.037,0.027,0.082,0.046,0.119c-26.139,18.725-56.238,31.186-87.899,36.416
			c-0.037-0.119-0.101-0.219-0.146-0.329c-0.521-1.426-1.125-2.798-1.81-4.142c-0.256-0.512-0.539-1.006-0.823-1.509
			c-0.722-1.262-1.463-2.487-2.313-3.639c-0.338-0.466-0.741-0.887-1.097-1.335c-1.545-1.902-3.264-3.621-5.157-5.175
			c-0.658-0.549-1.289-1.143-1.984-1.637c-0.841-0.594-1.737-1.088-2.633-1.618c-0.987-0.585-1.984-1.152-3.035-1.646
			c-0.85-0.393-1.71-0.75-2.587-1.079c-1.28-0.485-2.587-0.878-3.931-1.225c-0.75-0.192-1.49-0.411-2.258-0.549
			c-2.194-0.421-4.398-0.686-6.674-0.686c-2.277,0-4.48,0.265-6.647,0.677c-0.768,0.146-1.499,0.366-2.258,0.549
			c-1.344,0.338-2.651,0.731-3.931,1.225c-0.878,0.329-1.737,0.686-2.587,1.079c-1.042,0.494-2.048,1.061-3.035,1.646
			c-0.887,0.521-1.792,1.015-2.633,1.618c-0.704,0.503-1.326,1.088-1.984,1.637c-1.893,1.554-3.602,3.273-5.157,5.175
			c-0.366,0.448-0.759,0.869-1.097,1.335c-0.859,1.161-1.6,2.386-2.313,3.639c-0.283,0.494-0.558,0.997-0.823,1.509
			c-0.686,1.344-1.298,2.706-1.81,4.142c-0.046,0.119-0.11,0.219-0.146,0.329c-31.662-5.23-61.751-17.701-87.899-36.416
			c0.018-0.037,0.027-0.082,0.046-0.119c0.704-1.481,1.28-2.999,1.783-4.562c0.128-0.402,0.247-0.805,0.366-1.207
			c0.421-1.499,0.777-2.999,1.015-4.553c0.073-0.466,0.082-0.923,0.137-1.39c0.146-1.335,0.393-2.651,0.393-4.014
			c0-1.454-0.256-2.871-0.421-4.297c-0.073-0.603-0.082-1.216-0.174-1.819c-0.201-1.189-0.521-2.341-0.832-3.493
			c-0.256-0.942-0.521-1.874-0.85-2.807c-0.366-1.006-0.759-1.984-1.207-2.953c-0.521-1.125-1.125-2.213-1.755-3.291
			c-0.439-0.731-0.832-1.472-1.317-2.176c-1.225-1.765-2.569-3.465-4.142-5.038c-1.682-1.682-3.529-3.099-5.44-4.389
			c-0.183-0.119-0.375-0.219-0.558-0.338c-9.993-6.455-22.501-7.534-33.426-3.136c-0.201,0.073-0.402,0.155-0.603,0.238
			c-0.549,0.229-1.125,0.384-1.664,0.649c-18.725-26.139-31.195-56.229-36.416-87.899c0.11-0.037,0.21-0.101,0.32-0.137
			c1.435-0.521,2.798-1.125,4.142-1.81c0.521-0.265,1.024-0.539,1.527-0.832c1.253-0.713,2.459-1.445,3.611-2.295
			c0.494-0.366,0.933-0.777,1.408-1.161c1.819-1.49,3.474-3.136,4.983-4.946c0.594-0.713,1.234-1.39,1.774-2.158
			c0.585-0.823,1.07-1.71,1.591-2.587c0.594-1.006,1.17-2.021,1.673-3.081c0.393-0.841,0.741-1.691,1.07-2.56
			c0.494-1.289,0.887-2.606,1.234-3.959c0.192-0.75,0.402-1.472,0.549-2.24c0.384-2.149,0.649-4.361,0.649-6.638
			c0-2.277-0.265-4.489-0.677-6.656c-0.146-0.768-0.357-1.49-0.549-2.24c-0.347-1.353-0.741-2.67-1.234-3.959
			c-0.329-0.869-0.677-1.719-1.07-2.56c-0.503-1.061-1.07-2.075-1.673-3.081c-0.521-0.878-0.997-1.765-1.591-2.587
			c-0.539-0.759-1.179-1.435-1.774-2.158c-1.499-1.81-3.163-3.456-4.983-4.946c-0.475-0.384-0.914-0.805-1.408-1.161
			c-1.152-0.85-2.368-1.582-3.611-2.295c-0.503-0.283-1.006-0.567-1.527-0.832c-1.344-0.686-2.706-1.298-4.142-1.81
			c-0.11-0.037-0.21-0.101-0.32-0.137c5.221-31.671,17.691-61.76,36.416-87.899c0.037,0.018,0.073,0.027,0.101,0.037
			c1.463,0.704,2.962,1.262,4.498,1.765c0.466,0.155,0.923,0.293,1.39,0.421c1.426,0.402,2.862,0.741,4.334,0.969
			c0.649,0.101,1.307,0.128,1.957,0.192c1.179,0.119,2.341,0.347,3.538,0.347c1.07,0,2.094-0.219,3.145-0.311
			c1.033-0.082,2.057-0.128,3.081-0.302c1.07-0.183,2.103-0.475,3.154-0.759c1.061-0.274,2.112-0.576,3.145-0.951
			c0.933-0.338,1.847-0.713,2.752-1.134c1.189-0.549,2.341-1.179,3.474-1.865c0.686-0.411,1.381-0.786,2.039-1.243
			c1.774-1.225,3.483-2.587,5.065-4.16c1.563-1.563,2.917-3.264,4.142-5.038c0.485-0.704,0.887-1.445,1.317-2.176
			c0.64-1.079,1.243-2.158,1.755-3.291c0.448-0.969,0.841-1.947,1.207-2.953c0.329-0.923,0.594-1.856,0.85-2.807
			c0.311-1.161,0.64-2.304,0.832-3.493c0.101-0.603,0.11-1.216,0.174-1.819c0.165-1.426,0.421-2.834,0.421-4.297
			c0-1.362-0.247-2.679-0.393-4.014c-0.055-0.466-0.064-0.933-0.137-1.39c-0.229-1.554-0.585-3.054-1.015-4.553
			c-0.119-0.402-0.238-0.805-0.366-1.207c-0.503-1.563-1.07-3.081-1.783-4.562c-0.018-0.037-0.027-0.082-0.046-0.119
			c26.139-18.725,56.238-31.186,87.899-36.416c0.037,0.119,0.101,0.219,0.146,0.329c0.521,1.426,1.125,2.798,1.81,4.142
			c0.256,0.512,0.539,1.006,0.823,1.509c0.722,1.262,1.463,2.487,2.313,3.639c0.338,0.466,0.741,0.887,1.097,1.335
			c1.545,1.902,3.264,3.621,5.157,5.175c0.658,0.549,1.289,1.143,1.984,1.637c0.841,0.594,1.737,1.088,2.633,1.618
			c0.987,0.585,1.984,1.152,3.035,1.646c0.85,0.393,1.71,0.75,2.587,1.079c1.28,0.485,2.587,0.878,3.931,1.225
			c0.75,0.192,1.49,0.411,2.258,0.549c2.213,0.448,4.416,0.713,6.693,0.713c2.277,0,4.48-0.265,6.647-0.677
			c0.768-0.146,1.499-0.366,2.258-0.549c1.344-0.338,2.651-0.731,3.931-1.225c0.878-0.329,1.737-0.686,2.587-1.079
			c1.042-0.494,2.048-1.061,3.035-1.646c0.887-0.521,1.792-1.015,2.633-1.618c0.704-0.503,1.326-1.088,1.984-1.637
			c1.893-1.554,3.602-3.273,5.157-5.175c0.366-0.448,0.759-0.869,1.097-1.335c0.859-1.161,1.6-2.386,2.313-3.639
			c0.283-0.494,0.558-0.997,0.823-1.509c0.686-1.344,1.298-2.706,1.81-4.142c0.046-0.119,0.11-0.219,0.146-0.329
			c31.662,5.23,61.751,17.701,87.899,36.416c-0.018,0.037-0.027,0.082-0.046,0.119c-0.704,1.481-1.28,2.999-1.783,4.562
			c-0.128,0.402-0.247,0.805-0.366,1.207c-0.421,1.499-0.786,2.999-1.015,4.553c-0.073,0.457-0.082,0.914-0.137,1.371
			c-0.146,1.335-0.393,2.661-0.393,4.023c0,1.454,0.256,2.871,0.421,4.297c0.073,0.603,0.082,1.216,0.174,1.819
			c0.201,1.189,0.521,2.341,0.832,3.493c0.256,0.942,0.521,1.874,0.85,2.798c0.366,1.006,0.759,1.984,1.207,2.953
			c0.512,1.125,1.115,2.203,1.755,3.282c0.439,0.731,0.832,1.481,1.326,2.185c1.225,1.765,2.569,3.465,4.142,5.038
			s3.273,2.926,5.047,4.151c0.686,0.485,1.426,0.869,2.139,1.298c1.088,0.649,2.194,1.262,3.328,1.783
			c0.96,0.448,1.92,0.832,2.907,1.198c0.951,0.338,1.902,0.613,2.871,0.869c1.134,0.311,2.258,0.622,3.429,0.823
			c0.667,0.11,1.335,0.119,2.011,0.192c1.371,0.155,2.725,0.402,4.123,0.402c1.344,0,2.642-0.247,3.959-0.384
			c0.485-0.055,0.96-0.064,1.435-0.137c1.554-0.229,3.054-0.585,4.544-1.006c0.402-0.119,0.805-0.238,1.198-0.366
			c1.573-0.503,3.099-1.079,4.581-1.792c0.037-0.018,0.073-0.027,0.101-0.037c18.725,26.139,31.195,56.229,36.416,87.899
			c-0.11,0.037-0.21,0.101-0.32,0.137c-1.435,0.521-2.798,1.125-4.142,1.81c-0.521,0.265-1.024,0.539-1.527,0.832
			c-1.253,0.713-2.469,1.445-3.621,2.295c-0.494,0.357-0.933,0.777-1.399,1.161c-1.819,1.49-3.483,3.136-4.992,4.946
			c-0.594,0.713-1.234,1.39-1.774,2.158c-0.585,0.823-1.07,1.71-1.591,2.587c-0.594,1.006-1.17,2.021-1.673,3.081
			c-0.393,0.841-0.741,1.691-1.07,2.56c-0.494,1.289-0.887,2.606-1.225,3.95c-0.192,0.75-0.411,1.481-0.549,2.249
			c-0.375,2.149-0.64,4.361-0.64,6.638c0,2.277,0.265,4.489,0.677,6.647c0.146,0.768,0.357,1.499,0.549,2.249
			c0.347,1.344,0.741,2.67,1.225,3.95c0.329,0.878,0.677,1.719,1.07,2.56c0.503,1.061,1.07,2.075,1.673,3.081
			c0.521,0.878,0.997,1.765,1.591,2.587c0.539,0.759,1.179,1.435,1.774,2.158c1.509,1.81,3.163,3.456,4.992,4.946
			c0.475,0.384,0.914,0.795,1.399,1.161c1.152,0.85,2.368,1.582,3.621,2.295c0.503,0.283,1.006,0.567,1.527,0.832
			c1.344,0.686,2.706,1.298,4.142,1.81c0.11,0.037,0.21,0.101,0.32,0.137C458.185,322.094,445.714,352.183,426.999,378.322z
			 M475.429,274.286c-0.311,0-0.603-0.073-0.914-0.091c-0.091-0.009-0.165-0.064-0.247-0.064c-5.998-0.384-11.191-3.63-14.235-8.357
			c-0.603-0.933-1.115-1.911-1.536-2.944c-0.128-0.311-0.192-0.64-0.293-0.951c-0.265-0.759-0.53-1.518-0.695-2.313
			c-0.238-1.161-0.366-2.35-0.366-3.566s0.128-2.405,0.357-3.557c0.165-0.795,0.43-1.545,0.695-2.304
			c0.11-0.32,0.174-0.658,0.302-0.969c0.421-1.033,0.933-2.011,1.536-2.944c3.045-4.718,8.238-7.973,14.235-8.357
			c0.091-0.009,0.165-0.064,0.247-0.064c0.311-0.018,0.603-0.091,0.914-0.091c10.085,0,18.286,8.201,18.286,18.286
			S485.513,274.286,475.429,274.286z"/>
	</g>
</g>
</svg>