<svg  class="fill-current"
width = "18"
height = "18"
viewBox="0 0 512.014 512.014"
xmlns="http://www.w3.org/2000/svg"
enable-background="new 0 0 512.014 512.014">
<path d="m435.824 339.057c-17.468-15.792-41.252-27.654-67.238-33.619-2.784-2.052-9.057-6.925-16.285-12.541-5.822-4.523-12.182-9.464-18.136-14.035 18.098-17.453 32.095-39.295 38.398-61.504 7.246-1.401 14.608-5.363 20.552-11.224 7.237-7.137 11.388-16.1 11.388-24.589v-11.252c0-10.418-8.477-18.894-18.896-18.894h-9.479v-12.46c3.124-1.787 6.1-3.966 8.905-6.617.201-.19.392-.392.571-.603 11.298-13.334 19.354-35.47 21.55-59.211 2.258-24.405-1.822-45.817-11.194-58.746-9.891-13.643-24.827-17.292-42.063-10.275-22.063 8.974-50.994 9.7-78.973 10.402-18.859.473-38.36.962-56.249 3.913-4.087.674-6.854 4.534-6.18 8.621.675 4.086 4.532 6.854 8.621 6.179 16.862-2.781 35.836-3.257 54.184-3.717 29.325-.735 59.647-1.496 84.251-11.503 14.193-5.778 20.646.192 24.265 5.185 15.362 21.191 10.158 75.626-9.384 99.133-16.933 15.574-46.969 7.615-81.72-1.592-42.078-11.148-93.67-24.817-141.752-.508 1.938-54.583 24.885-71.333 42.557-79.182 3.786-1.681 5.491-6.113 3.811-9.898-1.682-3.785-6.112-5.492-9.898-3.811-35.87 15.93-52.729 50.569-51.539 105.892v18.799h-9.508c-10.419 0-18.896 8.476-18.896 18.894v11.252c0 8.481 4.149 17.438 11.385 24.573 5.953 5.871 13.327 9.838 20.582 11.241 6.395 22.539 20.713 44.71 39.205 62.29-5.573 4.288-11.446 8.853-16.831 13.038-6.698 5.206-12.597 9.791-15.726 12.136-16.772 3.584-33.008 9.707-47.054 17.767-2.937 1.678-5.803 3.461-8.521 5.3-.44.285-.854.57-1.267.855-3.405 2.358-4.255 7.03-1.896 10.436 1.456 2.104 3.794 3.231 6.173 3.231 1.473 0 2.96-.433 4.263-1.334.299-.207.598-.416.92-.623.051-.033.101-.066.151-.1 2.459-1.666 4.951-3.217 7.633-4.75 12.282-7.048 26.443-12.469 41.141-15.771 0 0 51.149 37.794 52.094 38.534 2.782 2.18 5.146 3.046 7.24 3.046 3.444 0 6.159-2.345 8.807-5.048 1.499-1.529 3.675-3.75 7.106-6.795l4.814 18.849-27.581 91.847c-.34.917-1.373 3.705.471 7.253l15.558 29.443h-76.148v-68.263c0-4.142-3.357-7.5-7.5-7.5s-7.5 3.358-7.5 7.5v68.263h-61.13c-.882 0-1.728.015-2.534.029-.866.015-1.922.035-2.763.011-.041-.435-.072-1.008-.072-1.751v-85.541c0-18.261 6.071-34.89 18.046-49.424 2.634-3.197 2.178-7.924-1.02-10.558-3.195-2.633-7.923-2.178-10.557 1.02-14.246 17.292-21.47 37.129-21.47 58.962v85.541c0 3.764.442 9.202 4.27 12.963 3.439 3.38 7.755 3.799 11.812 3.799.682 0 1.355-.012 2.018-.023.723-.013 1.48-.026 2.271-.026h164.705c.007 0 .014.001.022.001s.016-.001.025-.001h27.38 27.38c.008 0 .016.001.025.001.007 0 .014-.001.022-.001h164.705c.79 0 1.548.014 2.271.026.662.012 1.336.023 2.019.023 4.056 0 8.371-.419 11.811-3.799 3.827-3.761 4.27-9.199 4.27-12.963v-85.541c-.005-26.892-11.307-51.324-32.688-70.655zm-59.698-145.523v-27.136h9.479c2.111 0 3.896 1.783 3.896 3.894v11.252c0 4.436-2.587 9.636-6.92 13.909-2.073 2.044-4.4 3.74-6.783 4.998.217-2.352.328-4.662.328-6.917zm-246.724 1.904c-4.331-4.271-6.917-9.465-6.917-13.893v-11.252c0-2.111 1.784-3.894 3.896-3.894h9.508v27.136c0 2.274.107 4.583.318 6.916-2.391-1.262-4.726-2.963-6.805-5.013zm213.695 109.304c3.315 2.576 6.341 4.926 8.942 6.938l-42.22 31.353c-.87.551-1.635 1.068-2.306 1.543-1.82-1.834-4.362-4.311-8.105-7.553l-8.938-8.208c-.067-.064-.136-.127-.206-.189l-16.474-15.129c4.162-.99 8.473-2.309 13.044-4.014 12.576-4.695 24.727-11.794 35.811-20.552 6.572 5.028 13.858 10.688 20.452 15.811zm-66.186 31.988-6.21 24.354h-29.391l-5.869-22.98 21.475-19.735zm-124.205-127.994c-1.206-5.212-1.818-10.327-1.818-15.201v-56.77c44.807-26.837 94.239-13.747 137.98-2.158 21.607 5.725 41.591 11.02 59.021 11.02 4.596 0 9.012-.375 13.236-1.201v49.111c0 4.761-.614 9.887-1.825 15.229-8.174 35.923-41.583 73.183-77.711 86.668-9.608 3.584-17.738 5.253-25.583 5.253-7.871 0-15.999-1.668-25.581-5.252-36.129-13.489-69.538-50.749-77.719-86.699zm61.742 128.289c-3.743 3.242-6.284 5.718-8.104 7.552-.672-.475-1.437-.992-2.307-1.543l-42.219-31.353c2.672-2.066 5.79-4.49 9.213-7.15 6.177-4.801 13-10.103 19.245-14.891 10.839 8.431 22.667 15.278 34.9 19.845 5.104 1.909 9.889 3.333 14.508 4.349zm.592 125.734 26.024-86.674h29.886l26.014 86.642-18.068 34.238h-22.889-22.892zm238.467 32.494c0 .743-.031 1.316-.072 1.751-.838.023-1.896.004-2.763-.011-.807-.014-1.652-.029-2.534-.029h-56.987v-68.263c0-4.142-3.357-7.5-7.5-7.5s-7.5 3.358-7.5 7.5v68.263h-80.294l15.508-29.387c1.265-2.317 1.452-4.658.552-7.211-.009-.031-.018-.062-.026-.093l-27.579-91.854 5.144-20.175c.018.016.036.032.054.048 4.293 3.714 6.863 6.338 8.564 8.075 2.647 2.703 5.361 5.048 8.807 5.048 2.094 0 4.458-.867 7.24-3.046.945-.74 51.65-38.203 51.65-38.203 41.217 9.63 87.736 38.418 87.736 89.545z"/><path d="m287.812 220.5h-61.965c-8.419 0-15.268 6.848-15.268 15.266 0 27.588 23.267 42.023 46.249 42.023 22.983 0 46.25-14.435 46.25-42.023 0-8.418-6.848-15.266-15.266-15.266zm-30.984 42.289c-15.554 0-31.249-8.356-31.249-27.023 0-.137.13-.266.268-.266h61.965c.114 0 .267.131.267.266-.001 18.667-15.696 27.023-31.251 27.023z"/><path d="m220.116 182.041c-1.919 0-3.839-.732-5.303-2.196-3.738-3.738-9.821-3.74-13.563 0-2.929 2.928-7.678 2.928-10.606 0-2.929-2.929-2.929-7.678.001-10.607 9.586-9.585 25.188-9.586 34.774 0 2.93 2.929 2.93 7.678.001 10.607-1.466 1.463-3.385 2.196-5.304 2.196z"/><path d="m316.061 182.041c-1.917 0-3.833-.73-5.297-2.191-3.748-3.737-9.842-3.737-13.59 0-2.933 2.927-7.68 2.92-10.606-.012s-2.92-7.681.013-10.606c9.588-9.567 25.189-9.567 34.777 0 2.933 2.925 2.938 7.674.013 10.606-1.465 1.469-3.388 2.203-5.31 2.203z"/></svg>