<!-- icon666.com - MILLIONS OF FREE VECTOR ICONS --><svg xmlns="http://www.w3.org/2000/svg" id="Line_Expand" data-name="Line Expand" viewBox="0 0 64 64"><path d="M59,17A12,12,0,1,0,47,29,12.013,12.013,0,0,0,59,17ZM47,27A10,10,0,1,1,57,17,10.011,10.011,0,0,1,47,27Z"/><path d="M64,17A17,17,0,1,0,43.5,33.619V43.5H37a1,1,0,0,0-1,1v5a1,1,0,0,0,1,1h6.5V57a1,1,0,0,0,1,1h5a1,1,0,0,0,1-1V50.5H57a1,1,0,0,0,1-1v-5a1,1,0,0,0-1-1H50.5V33.619A16.893,16.893,0,0,0,64,17ZM49.5,45.5H56v3H49.5a1,1,0,0,0-1,1V56h-3V49.5a1,1,0,0,0-1-1H38v-3h6.5a1,1,0,0,0,1-1V32.785a1,1,0,0,0-.845-.988,15,15,0,1,1,4.69,0,1,1,0,0,0-.845.988V44.5A1,1,0,0,0,49.5,45.5Z"/><path d="M17,35A12,12,0,1,0,29,47,12.013,12.013,0,0,0,17,35Zm0,22A10,10,0,1,1,27,47,10.011,10.011,0,0,1,17,57Z"/><path d="M20.5,30.381v-13.6l1.814,1.451a3.5,3.5,0,0,0,4.372-5.466l-7.5-6a3.5,3.5,0,0,0-4.372,0l-7.5,6a3.5,3.5,0,1,0,4.372,5.466L13.5,16.782v13.6A16.992,16.992,0,1,0,34,47,16.893,16.893,0,0,0,20.5,30.381ZM17,62a14.99,14.99,0,0,1-2.345-29.8,1,1,0,0,0,.845-.988V14.7a1,1,0,0,0-1.625-.781l-3.438,2.751a1.5,1.5,0,1,1-1.874-2.342l7.5-6a1.5,1.5,0,0,1,1.874,0l7.5,6a1.5,1.5,0,1,1-1.874,2.342L20.125,13.92A1,1,0,0,0,18.5,14.7V31.215a1,1,0,0,0,.845.988A14.99,14.99,0,0,1,17,62Z"/></svg>