<svg
                class="fill-current"
                width="23"
                height="22"
                viewBox="0 0 23 22"
                fill="none"
                xmlns="http://www.w3.org/2000/svg"
              >
                <g clip-path="url(#clip0_30_982)">
                  <path
                    d="M11.6662 1.83337C6.6016 1.83337 2.49951 5.93546 2.49951 11C2.49847 12.9244 3.10343 14.8002 4.22854 16.3613C5.35366 17.9225 6.94181 19.0897 8.76768 19.6974C9.22602 19.7771 9.39743 19.5021 9.39743 19.261C9.39743 19.0438 9.38552 18.3224 9.38552 17.5542C7.08285 17.9786 6.48701 16.9932 6.30368 16.4771C6.2001 16.2131 5.75368 15.4 5.3641 15.1819C5.04326 15.0105 4.58493 14.586 5.35218 14.575C6.07451 14.5631 6.58968 15.2396 6.76201 15.5146C7.58701 16.9006 8.90518 16.511 9.43135 16.2709C9.51202 15.675 9.75218 15.2745 10.0162 15.0453C7.9766 14.8161 5.84535 14.025 5.84535 10.5188C5.84535 9.52146 6.2001 8.69737 6.78493 8.05479C6.69326 7.82562 6.37243 6.88604 6.8766 5.62562C6.8766 5.62562 7.64385 5.38546 9.39743 6.56612C10.1437 6.35901 10.9147 6.25477 11.6891 6.25629C12.4683 6.25629 13.2474 6.35896 13.9808 6.56521C15.7334 5.37354 16.5016 5.62654 16.5016 5.62654C17.0058 6.88696 16.6849 7.82654 16.5933 8.05571C17.1772 8.69737 17.5329 9.51046 17.5329 10.5188C17.5329 14.037 15.3906 14.8161 13.351 15.0453C13.6829 15.3313 13.9698 15.8813 13.9698 16.7411C13.9698 17.9667 13.9579 18.9521 13.9579 19.262C13.9579 19.5021 14.1302 19.7881 14.5885 19.6965C16.4081 19.0821 17.9893 17.9126 19.1094 16.3526C20.2296 14.7926 20.8323 12.9206 20.8329 11C20.8329 5.93546 16.7308 1.83337 11.6662 1.83337Z"
                    fill="currentColor"
                  />
                </g>
                <defs>
                  <clipPath id="clip0_30_982">
                    <rect width="22" height="22" fill="white" transform="translate(0.666138)" />
                  </clipPath>
                </defs>
              </svg>