 <svg
                class="fill-current"
                width="23"
                height="22"
                viewBox="0 0 23 22"
                fill="none"
                xmlns="http://www.w3.org/2000/svg"
              >
                <g clip-path="url(#clip0_30_974)">
                  <path
                    d="M6.69548 4.58327C6.69523 5.0695 6.50185 5.53572 6.15786 5.87937C5.81387 6.22301 5.34746 6.41593 4.86123 6.41569C4.375 6.41545 3.90878 6.22206 3.56513 5.87807C3.22149 5.53408 3.02857 5.06767 3.02881 4.58144C3.02905 4.09521 3.22244 3.62899 3.56643 3.28535C3.91042 2.9417 4.37683 2.74878 4.86306 2.74902C5.34929 2.74927 5.81551 2.94265 6.15915 3.28664C6.5028 3.63063 6.69572 4.09704 6.69548 4.58327ZM6.75048 7.77327H3.08381V19.2499H6.75048V7.77327ZM12.5438 7.77327H8.89548V19.2499H12.5071V13.2274C12.5071 9.87244 16.8796 9.56077 16.8796 13.2274V19.2499H20.5005V11.9808C20.5005 6.32494 14.0288 6.53577 12.5071 9.31327L12.5438 7.77327Z"
                    fill="currentColor"
                  />
                </g>
                <defs>
                  <clipPath id="clip0_30_974">
                    <rect width="22" height="22" fill="white" transform="translate(0.333862)" />
                  </clipPath>
                </defs>
              </svg>