<svg class="svg-icon" height="18" width="18" style="width: 1em; height: 1em;vertical-align: middle;fill: currentColor;overflow: hidden;"
    viewBox="0 0 1024 1024" version="1.1"
    xmlns="http://www.w3.org/2000/svg"><path d="M769.50426 130.824581 702.349791 130.824581l0-67.200518L321.612347 63.624063l0 67.200518-67.135026 0c-61.748343 0-111.991654 50.205449-111.991654 111.953791l0 604.673679c0 61.671595 50.243311 111.961978 111.991654 111.961978l515.025916 0c61.749366 0 112.010073-50.291406 112.010073-111.961978L881.51331 242.778372C881.51331 181.03003 831.252603 130.824581 769.50426 130.824581zM366.431112 108.424408 657.549445 108.424408l0 111.925139L366.431112 220.349547 366.431112 108.424408zM836.694545 847.453075c0 37.068244-30.103622 67.12377-67.190285 67.12377L254.47732 914.576845c-37.105083 0-67.209728-30.055526-67.209728-67.12377L187.267593 242.778372c0-37.050848 30.104645-67.200518 67.209728-67.200518l67.135026 0 0 89.618087L702.349791 265.195941l0-89.618087 67.154469 0c37.086663 0 67.190285 30.149671 67.190285 67.200518L836.694545 847.453075zM545.577235 399.550928l179.144076 0 0-44.781926L545.577235 354.769003 545.577235 399.550928zM254.47732 533.925359l470.245014 0 0-44.800345L254.47732 489.125013 254.47732 533.925359zM254.47732 668.279323l470.245014 0 0-44.783972L254.47732 623.49535 254.47732 668.279323zM254.47732 802.624077l470.245014 0 0-44.772716L254.47732 757.851361 254.47732 802.624077z"  /></svg>