<svg class="fill-current" width="18" height="18" viewBox="0 0 256 256" xml:space="preserve">
          fill-"none"
          xmlns="http://www.w3.org/2000/svg" 
          xmlns:xlink="http://www.w3.org/1999/xlink" version="1.1"

<defs>
</defs>
<g style="stroke: none; stroke-width: 0; stroke-dasharray: none; stroke-linecap: butt; stroke-linejoin: miter; stroke-miterlimit: 10;  fill-rule: nonzero; opacity: 1;" transform="translate(1.4065934065934016 1.4065934065934016) scale(2.81 2.81)" >
	<path d="M 45.776 16.944 V 1 c 0 -0.552 -0.448 -1 -1 -1 H 10.929 c -0.552 0 -1 0.448 -1 1 v 15.944 c 0 0.552 0.448 1 1 1 h 5.574 v 17.462 v 27.413 v 17.663 c 0 5.248 4.27 9.518 9.518 9.518 h 3.664 c 5.248 0 9.518 -4.27 9.518 -9.518 V 62.819 V 35.406 V 17.944 h 5.574 C 45.328 17.944 45.776 17.497 45.776 16.944 z M 37.202 61.819 h -18.7 V 36.406 h 18.7 V 61.819 z M 29.684 88 h -3.664 c -4.146 0 -7.518 -3.372 -7.518 -7.518 V 63.819 h 18.7 v 16.663 C 37.202 84.628 33.83 88 29.684 88 z M 37.202 34.406 h -18.7 V 17.944 h 18.7 V 34.406 z M 43.776 15.944 h -5.574 h -20.7 h -5.574 V 2 h 31.847 V 15.944 z" style="stroke: none; stroke-width: 1; stroke-dasharray: none; stroke-linecap: butt; stroke-linejoin: miter; stroke-miterlimit: 10; fill:current; fill-rule: nonzero; opacity: 1;" transform=" matrix(1 0 0 1 0 0) " stroke-linecap="round" />
	<path d="M 80.071 42.211 c 0 -5.292 -6.938 -13.351 -7.232 -13.691 c -0.381 -0.438 -1.131 -0.438 -1.512 0 c -0.184 0.212 -2.943 3.421 -4.997 7.09 c -2.898 -4.101 -5.451 -7.058 -5.479 -7.09 c -0.381 -0.438 -1.131 -0.438 -1.512 0 c -0.58 0.669 -14.205 16.511 -14.205 26.727 c 0 8.254 6.715 14.969 14.969 14.969 s 14.969 -6.715 14.969 -14.969 c 0 -1.563 -0.34 -3.355 -0.975 -5.318 C 77.528 49.034 80.071 45.918 80.071 42.211 z M 72.094 50.195 c 0.649 1.907 0.978 3.604 0.978 5.052 c 0 7.151 -5.817 12.969 -12.969 12.969 s -12.969 -5.817 -12.969 -12.969 c 0 -8.164 10.089 -21.02 12.962 -24.515 c 1.055 1.279 3.077 3.811 5.208 6.899 c -0.017 0.037 -0.027 0.07 -0.044 0.106 c -0.111 0.249 -0.208 0.497 -0.306 0.745 c -0.068 0.171 -0.144 0.347 -0.203 0.512 c -0.031 0.087 -0.052 0.171 -0.081 0.258 c -0.37 1.094 -0.567 2.079 -0.567 2.958 c 0 4.402 3.582 7.984 7.984 7.984 C 72.089 50.195 72.092 50.195 72.094 50.195 z M 72.087 48.195 c -3.3 0 -5.984 -2.685 -5.984 -5.984 c 0 -0.251 0.028 -0.524 0.072 -0.81 c 0.01 -0.065 0.024 -0.132 0.036 -0.198 c 0.048 -0.259 0.109 -0.528 0.191 -0.812 c 0.01 -0.033 0.017 -0.066 0.027 -0.1 c 0.102 -0.342 0.227 -0.701 0.377 -1.079 c 0.003 -0.008 0.007 -0.017 0.01 -0.025 c 0.154 -0.385 0.331 -0.787 0.534 -1.207 c 1.304 -2.69 3.348 -5.519 4.735 -7.243 c 2.177 2.704 5.987 8.129 5.987 11.473 C 78.071 45.511 75.387 48.195 72.087 48.195 z" style="stroke: none; stroke-width: 1; stroke-dasharray: none; stroke-linecap: butt; stroke-linejoin: miter; stroke-miterlimit: 10; fill: current; fill-rule: nonzero; opacity: 1;" transform=" matrix(1 0 0 1 0 0) " stroke-linecap="round" />
	<path d="M 22.658 43.515 h 3.838 c 0.552 0 1 -0.448 1 -1 s -0.448 -1 -1 -1 h -3.838 c -0.552 0 -1 0.448 -1 1 S 22.106 43.515 22.658 43.515 z" style="stroke: none; stroke-width: 1; stroke-dasharray: none; stroke-linecap: butt; stroke-linejoin: miter; stroke-miterlimit: 10; fill: current; fill-rule: nonzero; opacity: 1;" transform=" matrix(1 0 0 1 0 0) " stroke-linecap="round" />
	<path d="M 22.658 49.515 h 7.838 c 0.552 0 1 -0.447 1 -1 s -0.448 -1 -1 -1 h -7.838 c -0.552 0 -1 0.447 -1 1 S 22.106 49.515 22.658 49.515 z" style="stroke: none; stroke-width: 1; stroke-dasharray: none; stroke-linecap: butt; stroke-linejoin: miter; stroke-miterlimit: 10; fill: current; fill-rule: nonzero; opacity: 1;" transform=" matrix(1 0 0 1 0 0) " stroke-linecap="round" />
</g>
</svg>