<!-- icon666.com - MILLIONS OF FREE VECTOR ICONS --><svg xmlns="http://www.w3.org/2000/svg" viewBox="0 0 64 64"><g id="address"><path d="M32,6A18.183,18.183,0,0,0,14,24.32C14,33.7637,26.9531,58,32,58S50,33.7637,50,24.32A18.183,18.183,0,0,0,32,6Zm0,50c-3.1343,0-16-22.0752-16-31.68A16.181,16.181,0,0,1,32,8,16.181,16.181,0,0,1,48,24.32C48,33.9248,35.1343,56,32,56Zm0-45A13,13,0,1,0,45,24,13.0147,13.0147,0,0,0,32,11Zm0,24A11,11,0,1,1,43,24,11.0125,11.0125,0,0,1,32,35Zm8.53-14.8477-8-5a.9975.9975,0,0,0-1.06,0l-8,5A1,1,0,0,0,24,22h2v9a1,1,0,0,0,1,1h3a1,1,0,0,0,1-1V27h2v4a1,1,0,0,0,1,1h3a1,1,0,0,0,1-1V22h2a1,1,0,0,0,.53-1.8477ZM36,21v9H35V26a1,1,0,0,0-1-1H30a1,1,0,0,0-1,1v4H28V21a1.0012,1.0012,0,0,0-.6279-.9287L32,17.18l4.6279,2.8916A1.0012,1.0012,0,0,0,36,21Z"/></g></svg>