<svg width="18" height="18" viewBox="0 0 18 18" fill="none" xmlns="http://www.w3.org/2000/svg">
  <path d="M16.1999 5.86245L12.1374 1.79995C11.9249 1.58745 11.5874 1.49995 11.3062 1.49995C11.0249 1.49995 10.6874 1.61245 10.4749 1.82495L2.4374 9.86245C2.3624 9.93745 2.3624 10.0687 2.3624 10.1437L1.7999 15.5812C1.7999 15.7687 1.8749 15.9562 1.9499 16.0875C2.0999 16.2187 2.2499 16.2937 2.3999 16.2937H2.4749L7.9124 15.7312C7.9874 15.7312 8.0624 15.6562 8.1374 15.5812L16.1749 7.54995C16.5874 7.16245 16.5874 6.27495 16.1999 5.86245ZM7.4249 14.2687L3.2249 14.6999L3.6562 10.4999L9.5624 4.59375L13.3312 8.36245L7.4249 14.2687ZM14.4187 7.27495L13.9874 7.70620L10.2187 3.93745L10.6499 3.50620C10.6499 3.50620 10.7249 3.43120 10.7999 3.43120C10.8749 3.43120 10.9499 3.50620 10.9499 3.50620L14.9999 7.55620C15.0749 7.60620 15.0749 7.75620 14.4187 7.27495Z" fill="" />
  </svg>