<!-- icon666.com - MILLIONS OF FREE VECTOR ICONS --><svg version="1.1" id="Capa_1" xmlns="http://www.w3.org/2000/svg" xmlns:xlink="http://www.w3.org/1999/xlink" x="0px" y="0px" viewBox="0 0 482.816 482.816" style="enable-background:new 0 0 482.816 482.816;" xml:space="preserve"><g><g><path d="M477.019,61.258L354.551,5.974c-0.026-0.012-0.053-0.02-0.079-0.031c-0.192-0.085-0.389-0.158-0.587-0.231 c-0.107-0.039-0.213-0.082-0.321-0.118c-0.186-0.061-0.376-0.11-0.566-0.16c-0.127-0.033-0.253-0.07-0.381-0.098 c-0.168-0.037-0.339-0.064-0.511-0.092c-0.156-0.026-0.312-0.053-0.469-0.071c-0.148-0.017-0.299-0.026-0.449-0.036 c-0.182-0.013-0.365-0.025-0.547-0.028c-0.048-0.001-0.094-0.007-0.141-0.007H132.317c-0.053,0-0.104,0.007-0.157,0.008 c-0.166,0.003-0.331,0.014-0.496,0.025c-0.167,0.011-0.334,0.021-0.498,0.04c-0.141,0.017-0.281,0.042-0.421,0.064 c-0.186,0.03-0.372,0.059-0.555,0.1c-0.115,0.026-0.229,0.059-0.343,0.088c-0.202,0.052-0.403,0.105-0.599,0.169 c-0.102,0.033-0.202,0.074-0.303,0.111c-0.203,0.074-0.404,0.149-0.6,0.236c-0.026,0.012-0.053,0.019-0.079,0.031L5.798,61.258 c-4.957,2.237-7.161,8.069-4.923,13.025l103.793,229.93c-2.536,10.549-3.889,21.554-3.889,32.871 c0,77.544,63.087,140.631,140.63,140.631c77.544,0,140.631-63.087,140.631-140.631c0-11.317-1.353-22.323-3.889-32.873 L481.942,74.283C484.179,69.327,481.975,63.495,477.019,61.258z M335.253,24.794l-40.803,90.388H188.366l-40.802-90.388H335.253z M285.561,134.875l-28.208,62.488c-5.236-0.594-10.554-0.909-15.945-0.909c-5.391,0-10.71,0.316-15.945,0.909l-28.207-62.488 H285.561z M22.874,75.155l104.52-47.182l78.148,173.123c-40.481,10.685-73.867,39.01-91.411,76.22L22.874,75.155z M241.408,458.022c-66.686,0-120.937-54.253-120.937-120.938c0-10.207,1.277-20.121,3.669-29.596 c0.209-0.471,0.384-0.963,0.519-1.473c12.121-45.646,50.022-80.203,96.558-88.039c0.502-0.084,0.987-0.22,1.463-0.378 c6.106-0.953,12.36-1.452,18.729-1.452c6.369,0,12.624,0.499,18.729,1.452c0.476,0.158,0.96,0.293,1.462,0.378 c46.535,7.835,84.437,42.392,96.558,88.038c0.136,0.51,0.311,1.003,0.52,1.474c2.392,9.475,3.669,19.388,3.669,29.596 C362.347,403.769,308.094,458.022,241.408,458.022z M368.685,277.313c-17.544-37.209-50.93-65.533-91.411-76.218l78.15-173.122 l104.519,47.182L368.685,277.313z"/></g></g><g><g><path d="M332.324,307.827c-1.159-3.564-4.239-6.162-7.948-6.702l-51.228-7.443l-22.91-46.42c-1.66-3.361-5.082-5.488-8.83-5.488 c-3.748,0-7.171,2.128-8.83,5.488l-22.909,46.42l-51.228,7.443c-3.709,0.539-6.789,3.138-7.948,6.702 c-1.158,3.564-0.192,7.477,2.491,10.093l37.068,36.133l-8.751,51.02c-0.634,3.694,0.886,7.427,3.917,9.63 c3.033,2.205,7.053,2.492,10.369,0.75l45.819-24.088l45.819,24.088c1.44,0.757,3.013,1.131,4.581,1.131 c2.041,0,4.073-0.635,5.788-1.881c3.032-2.203,4.551-5.936,3.917-9.63l-8.75-51.02l37.068-36.133 C332.516,315.304,333.481,311.391,332.324,307.827z M275.311,343.564c-2.32,2.263-3.379,5.521-2.832,8.715l6.253,36.459 l-32.742-17.213c-1.435-0.754-3.008-1.131-4.582-1.131c-1.574,0-3.147,0.377-4.582,1.131l-32.742,17.213l6.254-36.459 c0.547-3.194-0.512-6.453-2.832-8.715l-26.489-25.82l36.608-5.319c3.207-0.466,5.979-2.481,7.413-5.387l16.37-33.171 l16.371,33.171c1.435,2.906,4.207,4.92,7.414,5.387l36.608,5.319L275.311,343.564z"/></g></g></svg>