<svg xmlns="http://www.w3.org/2000/svg" id="Layer_1" data-name="Layer 1" viewBox="0 0 512 512" width="20" height="22">
    <title>OT</title>
    <path fill="currentColor" d="M470.5,286H129V265c0-6.065-4.435-11-10.5-11h-63c-6.065,0-11.5,4.935-11.5,11v21H41.5c-6.065,0-11.5,4.935-11.5,11v16c0,6.065,5.435,11,11.5,11H186v62H136.5c-6.065,0-11.5,4.935-11.5,11v36.862a30.014,30.014,0,1,0,37.183,29.163A29.35,29.35,0,0,0,139,433.862V424H372v9.862a30.014,30.014,0,1,0,37.183,29.163A29.35,29.35,0,0,0,386,433.862V397c0-6.065-4.435-11-10.5-11H325V324H470.5c6.065,0,10.5-4.935,10.5-11V297C481,290.935,476.565,286,470.5,286ZM58,268h57v18H58Zm90.246,195.025a15.908,15.908,0,0,1-15.871,16,16.175,16.175,0,0,1-16.183-16A16.417,16.417,0,0,1,125,448.664V457a7,7,0,0,0,14,0v-8.335A15.113,15.113,0,0,1,148.246,463.025Zm247,0a15.908,15.908,0,0,1-15.871,16,16.175,16.175,0,0,1-16.183-16A16.414,16.414,0,0,1,372,448.665V457a7,7,0,0,0,14,0v-8.335A15.113,15.113,0,0,1,395.246,463.025ZM372,410H139V400H372Zm-61-24H200V324H311Zm156-76H44V300H467Z"/>
    <path fill="currentColor" d="M256,19a7,7,0,0,0-7,7V53H233.5c-6.065,0-11.5,4.935-11.5,11V84.339c-21,2.121-37.914,13.853-46.388,24.9-4.277,5.578-9.987,21.274-11.113,24.363a7.019,7.019,0,0,0,.905,6.411A7.112,7.112,0,0,0,171.2,143H344.878a7,7,0,0,0,6.577-9.4c-1.127-3.09-7.211-18.785-11.489-24.363C331.494,98.2,313,86.388,290,84.32V64c0-6.065-4.435-11-10.5-11H263V26A7,7,0,0,0,256,19Zm73.107,98.76c1.316,1.717,3.464,6.339,5.511,11.24H181.46c2.046-4.9,4.193-9.521,5.511-11.24C194.3,108.207,209.318,98,229.5,98H283.58C303.519,98,321.575,107.94,329.107,117.76ZM276,84H236V67h40Z"/>
  </svg>
  