<svg class="fill-current" width="18" height="18" id="Layer_2" enable-background="new 0 0 32 32" viewBox="0 0 32 32"
    xmlns="http://www.w3.org/2000/svg">
        <g><path d="m2.31543 19.30664 2.29199.28418c.20898.66602.47461 1.3125.7959 1.92773l-1.41992 1.81836c-.46582.59766-.41309 1.45117.12207 1.98242l2.57324 2.57324c.53418.53809 1.38965.58887 1.98535.12305l1.81738-1.41895c.61426.32031 1.25977.58691 1.92773.7959l.28418 2.29297c.09376.74903.73341 1.31446 1.48829 1.31446h3.63672c.75488 0 1.39453-.56543 1.48828-1.31543l.28418-2.29199c.66797-.20898 1.31445-.47559 1.92773-.7959l1.81836 1.41992c.59668.46484 1.45117.41309 1.98242-.12207l2.57324-2.57324c.53711-.5332.58984-1.38672.12305-1.98535l-1.41895-1.81738c.32031-.61523.58691-1.26172.7959-1.92773l2.29297-.28418c.74903-.09376 1.31446-.73341 1.31446-1.48829v-3.63672c0-.75488-.56543-1.39453-1.31543-1.48828l-2.29199-.28418c-.20898-.66602-.47461-1.3125-.7959-1.92773l1.41992-1.81836c.46582-.59766.41309-1.45117-.12207-1.98242l-2.57324-2.57324c-.53418-.53613-1.3877-.58887-1.98535-.12305l-1.81738 1.41895c-.61426-.32031-1.26074-.58691-1.92773-.7959l-.28418-2.29297c-.09376-.74903-.73341-1.31446-1.48829-1.31446h-3.63672c-.75488 0-1.39453.56543-1.48828 1.31543l-.28418 2.29199c-.66602.20898-1.3125.47461-1.92773.7959l-1.81836-1.41992c-.59766-.46485-1.45118-.41309-1.98243.12207l-2.57324 2.57324c-.53711.5332-.58984 1.38672-.12305 1.98535l1.41895 1.81738c-.32031.61426-.58691 1.26074-.7959 1.92773l-2.29297.28418c-.74902.09376-1.31445.73341-1.31445 1.48829v3.63672c0 .75488.56543 1.39453 1.31543 1.48828zm.68457-4.68262 2.18457-.27148c.59766-.07324 1.08984-.49805 1.25195-1.08008.20898-.7373.50195-1.44727.87109-2.11035.29492-.52637.24707-1.17285-.12207-1.64746l-1.35253-1.73242 1.94922-1.94922 1.7334 1.35352c.47363.36816 1.11816.41699 1.64648.12109.66309-.36914 1.37305-.66211 2.10742-.87012.58496-.16309 1.00977-.65527 1.08301-1.25195l.27148-2.18555h2.75195l.27148 2.18457c.07324.59766.49805 1.08984 1.08008 1.25195.7373.20898 1.44727.50195 2.11035.87109.52734.2959 1.17285.24609 1.64746-.12207l1.73242-1.35254 1.94922 1.94922-1.35352 1.7334c-.36816.47363-.41602 1.12012-.12109 1.64648.36914.66309.66211 1.37305.87012 2.10742.16309.58496.65527 1.00977 1.25195 1.08301l2.18556.27149v2.75195l-2.18457.27148c-.59668.07324-1.08887.49707-1.25293 1.08008-.20801.7373-.50098 1.44727-.87012 2.11035-.29492.52637-.24707 1.17285.12207 1.64746l1.35254 1.73242-1.94922 1.94922-1.7334-1.35352c-.47363-.36719-1.11719-.41504-1.64746-.12207-.66113.37012-1.37109.66309-2.10645.87109-.58496.16309-1.00977.65527-1.08301 1.25195l-.27147 2.18557h-2.75195l-.27148-2.18457c-.07324-.59766-.49805-1.08984-1.08008-1.25195-.73828-.20898-1.44824-.50195-2.11328-.87402-.5293-.29297-1.17285-.24219-1.64453.125l-1.73242 1.35254-1.94922-1.94922 1.35352-1.7334c.36816-.47363.41602-1.12012.12109-1.64648-.36914-.66309-.66211-1.37305-.87012-2.10742-.16309-.58496-.65527-1.00977-1.25195-1.08301l-2.18556-.27149z"/><path d="m16 22.91113c3.81055 0 6.91113-3.10059 6.91113-6.91113s-3.10058-6.91113-6.91113-6.91113-6.91113 3.10058-6.91113 6.91113 3.10058 6.91113 6.91113 6.91113zm0-11.82226c2.70801 0 4.91113 2.20313 4.91113 4.91113s-2.20312 4.91113-4.91113 4.91113-4.91113-2.20312-4.91113-4.91113 2.20312-4.91113 4.91113-4.91113z"/></g></svg>