<svg 
class="fill-current" width="18" height="18" viewBox="0 0 64 64"
 xmlns="http://www.w3.org/2000/svg"><g><path d="m61 35.184v-14.184c0-1.103-.897-2-2-2v-2c0-1.103-.897-2-2-2v-8h-2v8c-1.103 0-2 .897-2 2v2c-1.103 0-2 .897-2 2v14h-3.271c-.867-2.475-2.803-4.412-5.324-5.252l-4.047-1.349c-.327-.109-.571-.373-.655-.706l-.338-1.351c3.003-1.216 5.205-4.004 5.576-7.341h1.059c1.654 0 3-1.346 3-3 0-1.302-.839-2.402-2-2.816v-5.185h-.013c-.006-.105-.009-.21-.026-.315l-.557-3.343c-.323-1.936-1.982-3.342-3.945-3.342h-12.918c-1.963 0-3.622 1.406-3.945 3.343l-.557 3.344c-.017.103-.02.208-.026.313h-.013v5.184c-1.161.414-2 1.514-2 2.816 0 1.654 1.346 3 3 3h1.059c.371 3.337 2.572 6.125 5.576 7.341l-.338 1.351c-.084.333-.328.597-.655.706l-1.25.417c-3.821 1.274-6.781 4.375-7.946 8.199-.586.035-1.151.277-1.567.693l-1 1c-.034.034-.079.05-.117.078l-2.71-12.651.224-.448c1.127-2.258 1.724-4.784 1.724-7.307 0-3.694-1.271-7.319-3.58-10.206l-.233-.291c-.449-.56-1.118-.882-1.836-.882-1.296 0-2.351 1.055-2.351 2.351v25.886c-.67-.143-1.353-.237-2.05-.237-3.281 0-5.95 2.669-5.95 5.95 0 1.589.619 3.083 1.743 4.207l.706.706c-1.543 1.242-2.449 3.116-2.449 5.119 0 2.834 1.806 5.34 4.494 6.236l1.728.576c.572 1.85 2.278 3.206 4.313 3.206 1.769 0 3.538-.418 5.115-1.208l.333-.166c1.138.874 2.539 1.374 4.017 1.374 2.213 0 4.268-1.1 5.496-2.941l.902-1.354c.712-1.067 1.903-1.705 3.187-1.705 1.199 0 2.345.572 3.064 1.531 1.137 1.518 2.776 2.606 4.616 3.065l4.86 1.215c.357 1.259 1.504 2.189 2.875 2.189h14c1.654 0 3-1.346 3-3v-22c0-1.302-.839-2.402-2-2.816zm-6-18.184h2v2h-2zm-2 4h6v2h-2v2h2v2h-4v2h4v2h-2v2h2v2h-6zm-12-3c0 1.902-.765 3.627-2 4.889v-3.889c0-.178-.031-.347-.075-.511l2.075-2.075zm1.87-5c-.139-.482-.385-.929-.749-1.293l-.707-.707h.739c.297 0 .577-.058.847-.143v2.143zm1.13 2c.552 0 1 .449 1 1s-.448 1-1 1h-1v-2zm-18.988-6.987.557-3.342c.16-.968.991-1.671 1.972-1.671h12.918c.981 0 1.812.703 1.973 1.671l.557 3.341c.007.047.011.094.011.141 0 .467-.38.847-.847.847h-16.306c-.467 0-.847-.38-.847-.847 0-.047.004-.094.012-.14zm-.012 8.987h-1c-.552 0-1-.449-1-1s.448-1 1-1h1zm.879-5.293c-.364.364-.61.811-.749 1.293h-.13v-2.143c.269.085.55.143.847.143h.739zm3.121 7.293v3.889c-1.235-1.263-2-2.988-2-4.889v-1.586l2.075 2.075c-.044.164-.075.333-.075.511zm1.489-1.925-3.449-3.449c.04-.188.114-.366.253-.505l2.121-2.121h1.051l1.703 2.555 1.664-1.109-.964-1.446h1.596l1.703 2.555 1.664-1.109-.963-1.446h1.717l2.121 2.121c.139.139.213.317.253.505l-3.449 3.449c-.163-.044-.332-.075-.51-.075h-2v-2h-2v2h-2c-.178 0-.347.031-.511.075zm3.511 7.925c-1.074 0-2.089-.251-3-.685v-5.315h6v5.315c-.911.434-1.926.685-3 .685zm2.126 4.008-2.126 3.189-2.126-3.189c.156-.256.287-.529.363-.83l.326-1.304c.469.076.947.126 1.437.126s.968-.05 1.438-.126l.326 1.304c.075.301.206.574.362.83zm-7.102 1.705 1.25-.417c.015-.005.027-.015.041-.02l2.685 4.027v10.697h-2.019c-.097-1.671-.838-3.168-1.981-4.25v-3.336c0-1.179-.459-2.287-1.293-3.121l-1.414 1.414c.456.456.707 1.063.707 1.707v2.049c-.734-.296-1.534-.463-2.373-.463h-1.662c-.085-.487-.322-.919-.653-1.26.945-3.276 3.456-5.942 6.712-7.027zm-18.024-21.362c0-.299.436-.456.625-.218l.233.292c2.027 2.532 3.142 5.712 3.142 8.954 0 2.214-.523 4.431-1.514 6.412l-.104.209h-2.382zm0 17.649h2.191l.429 2h-.62v2h1.048l.429 2h-1.477v2h1.906l.869 4.056c-.258.027-.512.064-.758.127-1.031-1.446-2.423-2.576-4.017-3.293zm14.734 28.596-.902 1.354c-.856 1.283-2.289 2.05-3.832 2.05s-2.976-.767-3.832-2.051l-.336-.504-1.664 1.109.336.504c.009.014.021.026.03.04-1.246.584-2.621.902-3.999.902-1.397 0-2.535-1.138-2.535-2.535 0-.678.264-1.314.742-1.793l.965-.965-1.414-1.414-.965.965c-.658.658-1.083 1.485-1.248 2.382l-.954-.318c-1.869-.624-3.126-2.368-3.126-4.34 0-1.532.761-2.955 2.036-3.805l1.533-1.022-2.412-2.412c-.746-.746-1.157-1.738-1.157-2.793 0-2.178 1.772-3.95 3.95-3.95 2.445 0 4.759 1.155 6.238 3.045-1.32.97-2.188 2.521-2.188 4.281 0 2.031 1.128 3.856 2.944 4.764.785.393 1.37 1.066 1.658 1.893l-1.31 1.31 1.414 1.414 1.581-1.581c.728-.726 1.692-1.126 2.72-1.126 1.466 0 2.782.814 3.438 2.125.509 1.019 1.346 1.859 2.355 2.385-.021.03-.046.056-.066.086zm17.266-4.596h-2.586c-1.179 0-2.287.459-3.121 1.293l1.414 1.414c.456-.456 1.063-.707 1.707-.707h2.586v5.72l-4.25-1.063c-1.395-.349-2.638-1.175-3.501-2.326-1.095-1.459-2.839-2.331-4.664-2.331-1.198 0-2.342.368-3.298 1.025l-.517-.259c-.661-.33-1.206-.875-1.536-1.536-.997-1.992-2.999-3.23-5.227-3.23-.992 0-1.946.248-2.793.71-.512-1.035-1.324-1.883-2.375-2.409-1.135-.567-1.839-1.706-1.839-2.975 0-1.834 1.492-3.326 3.326-3.326h.846c.801 0 1.555-.313 2.121-.879l1-1c.238-.238.708-.045.707.293v1.586h3.627c.128 0 .248.027.373.038v1.962h2v-1.29c1.201.78 2 2.128 2 3.663 0 .865-.254 1.704-.734 2.426l-1.098 1.646 1.664 1.109 1.098-1.646c.392-.589.669-1.235.847-1.908h3.083c1.676 0 3.23-.832 4.16-2.227l.594-.891c1.015-1.523 2.61-2.52 4.387-2.796v9.914zm0-13v1.062c-.69.082-1.361.247-2 .489v-2.137c0-.645.251-1.251.707-1.707l-1.414-1.414c-.834.834-1.293 1.942-1.293 3.121v3.226c-.791.579-1.49 1.293-2.051 2.133l-.594.891c-.335.503-.815.864-1.355 1.088v-10.45l2.684-4.027c.015.005.027.015.041.02l4.047 1.349c1.712.57 3.067 1.805 3.817 3.396-1.459.204-2.589 1.446-2.589 2.96zm18 22c0 .552-.448 1-1 1h-11v-18h-2v18h-1c-.552 0-1-.448-1-1v-22c0-.552.448-1 1-1h1v4h2v-4h11c.552 0 1 .448 1 1z"/><path d="m17.707 42.293-1.414 1.414.293.293c.267.268.414.622.414 1s-.147.732-.414 1l-.293.293 1.414 1.414.293-.293c.645-.645 1-1.502 1-2.414s-.355-1.77-1-2.414z"/><path d="m21.5 43.882h2v2.236h-2z" transform="matrix(.894 -.447 .447 .894 -17.749 14.813)"/><path d="m24 46.382h2v2.236h-2z" transform="matrix(.447 -.894 .894 .447 -28.666 48.618)"/></g></svg>