<svg
                class="fill-current"
                width="23"
                height="22"
                viewBox="0 0 23 22"
                fill="none"
                xmlns="http://www.w3.org/2000/svg"
              >
                <g clip-path="url(#clip0_30_970)">
                  <path
                    d="M20.9813 5.18472C20.2815 5.49427 19.5393 5.69757 18.7795 5.78789C19.5804 5.30887 20.1798 4.55498 20.4661 3.66672C19.7145 4.11405 18.8904 4.42755 18.0315 4.59714C17.4545 3.97984 16.6898 3.57044 15.8562 3.43259C15.0225 3.29474 14.1667 3.43617 13.4218 3.83489C12.6768 4.2336 12.0845 4.86726 11.7368 5.63736C11.3891 6.40746 11.3056 7.27085 11.4993 8.0933C9.97497 8.0169 8.48376 7.62078 7.12247 6.93066C5.76118 6.24054 4.56024 5.27185 3.59762 4.08747C3.25689 4.67272 3.07783 5.33801 3.07879 6.01522C3.07879 7.34439 3.75529 8.51864 4.78379 9.20614C4.17513 9.18697 3.57987 9.0226 3.04762 8.72672V8.77439C3.04781 9.65961 3.35413 10.5175 3.91465 11.2027C4.47517 11.8878 5.2554 12.3581 6.12304 12.5336C5.55802 12.6868 4.96557 12.7093 4.39054 12.5996C4.63517 13.3616 5.11196 14.028 5.75417 14.5055C6.39637 14.983 7.17182 15.2477 7.97196 15.2626C7.17673 15.8871 6.2662 16.3488 5.29243 16.6212C4.31866 16.8936 3.30074 16.9714 2.29688 16.8502C4.04926 17.9772 6.08921 18.5755 8.17271 18.5735C15.2246 18.5735 19.081 12.7316 19.081 7.66522C19.081 7.50022 19.0765 7.33339 19.0691 7.17022C19.8197 6.62771 20.4676 5.95566 20.9822 5.18564L20.9813 5.18472Z"
                    fill="currentColor"
                  />
                </g>
                <defs>
                  <clipPath id="clip0_30_970">
                    <rect width="22" height="22" fill="white" transform="translate(0.666138)" />
                  </clipPath>
                </defs>
              </svg>